<svg width="46" height="46" viewBox="0 0 46 46" fill="none" xmlns="http://www.w3.org/2000/svg">
<rect x="0.5" y="0.5" width="45" height="45" rx="22.5" fill="url(#paint0_linear_602_781)" stroke="white"/>
<path d="M32.1668 27.5088V30.2588C32.1678 30.5141 32.1156 30.7668 32.0133 31.0007C31.911 31.2346 31.761 31.4446 31.5729 31.6172C31.3848 31.7898 31.1627 31.9211 30.9208 32.0029C30.679 32.0847 30.4227 32.1151 30.1685 32.0921C27.3477 31.7856 24.6382 30.8218 22.2576 29.278C20.0428 27.8706 18.165 25.9928 16.7576 23.778C15.2085 21.3866 14.2444 18.6639 13.9435 15.8305C13.9206 15.577 13.9507 15.3215 14.0319 15.0803C14.1132 14.8391 14.2437 14.6174 14.4153 14.4294C14.5869 14.2415 14.7958 14.0913 15.0286 13.9884C15.2614 13.8856 15.5131 13.8324 15.7676 13.8321H18.5176C18.9625 13.8277 19.3938 13.9853 19.7311 14.2754C20.0684 14.5654 20.2887 14.9683 20.351 15.4088C20.467 16.2888 20.6823 17.153 20.9926 17.9846C21.116 18.3127 21.1427 18.6693 21.0696 19.0121C20.9964 19.3549 20.8266 19.6696 20.5801 19.9188L19.416 21.083C20.7209 23.3779 22.6211 25.278 24.916 26.583L26.0801 25.4188C26.3294 25.1723 26.644 25.0025 26.9868 24.9294C27.3296 24.8563 27.6862 24.883 28.0143 25.0063C28.846 25.3166 29.7101 25.5319 30.5901 25.648C31.0354 25.7108 31.4421 25.9351 31.7328 26.2782C32.0235 26.6213 32.178 27.0592 32.1668 27.5088Z" stroke="#36171E" stroke-width="2" stroke-linecap="round" stroke-linejoin="round"/>
<defs>
<linearGradient id="paint0_linear_602_781" x1="1.53333" y1="13.4341" x2="44.9995" y2="26.3427" gradientUnits="userSpaceOnUse">
<stop stop-color="#F7C662"/>
<stop offset="0.3198" stop-color="#FFFC82"/>
<stop offset="0.6802" stop-color="#FFF68A"/>
<stop offset="1" stop-color="#E1AB18"/>
</linearGradient>
</defs>
</svg>
