<svg width="40" height="40" viewBox="0 0 40 40" fill="none" xmlns="http://www.w3.org/2000/svg">
<circle cx="20" cy="20" r="20" fill="#3C1D24" fill-opacity="0.7"/>
<path d="M20 33C27.1797 33 33 27.1797 33 20C33 12.8203 27.1797 7 20 7C12.8203 7 7 12.8203 7 20C7 27.1797 12.8203 33 20 33Z" fill="#F7C662"/>
<path d="M20 29.9023C25.4689 29.9023 29.9023 25.4689 29.9023 20C29.9023 14.5311 25.4689 10.0977 20 10.0977C14.5311 10.0977 10.0977 14.5311 10.0977 20C10.0977 25.4689 14.5311 29.9023 20 29.9023Z" fill="#FF8D3B"/>
<path d="M26.52 17.8824C26.43 17.6064 26.1919 17.4055 25.9048 17.3639L22.297 16.8395L20.6829 13.5702C20.5549 13.3098 20.2775 13.1797 20 13.1797C19.7225 13.1797 19.4451 13.3098 19.3171 13.5702L17.703 16.8395L14.0952 17.3639C13.8081 17.4055 13.57 17.6064 13.48 17.8816C13.3908 18.1576 13.4652 18.4603 13.6727 18.6627L16.2837 21.2082L15.6677 24.8018C15.6186 25.0875 15.7362 25.3761 15.9705 25.5464C16.2071 25.7183 16.5186 25.739 16.7724 25.6045L19.9999 23.9084L23.2276 25.6044C23.4835 25.7398 23.7959 25.7182 24.0295 25.5464C24.2638 25.3761 24.3814 25.0874 24.3322 24.8018L23.7156 21.2081L26.3273 18.6626C26.5348 18.4604 26.6092 18.1576 26.52 17.8824Z" fill="#F7C662"/>
</svg>
