<svg width="36" height="36" viewBox="0 0 36 36" fill="none" xmlns="http://www.w3.org/2000/svg">
<rect x="0.5" y="0.5" width="35" height="35" rx="17.5" fill="url(#paint0_linear_574_222)" stroke="white"/>
<path d="M12.1955 16.2353L12.1955 16.2353C12.001 16.1479 11.9142 15.9193 12.0016 15.7248L12.1955 16.2353ZM12.1955 16.2353C12.4579 16.3533 12.7611 16.4153 13.0724 16.4153C13.3837 16.4153 13.687 16.3534 13.9494 16.2353M12.1955 16.2353L14.1432 15.7248M14.1432 15.7248L14.1432 15.7248C14.2306 15.9193 14.1439 16.1479 13.9494 16.2353M14.1432 15.7248C14.0557 15.5303 13.8272 15.4436 13.6327 15.5309L13.6327 15.5309M14.1432 15.7248L13.6327 15.5309M13.9494 16.2353L13.9289 16.1897L13.9494 16.2353ZM13.6327 15.5309C13.4705 15.6038 13.2769 15.6429 13.0724 15.6429M13.6327 15.5309L13.0724 15.6429M13.0724 15.6429C12.868 15.6429 12.6743 15.6038 12.5122 15.5309L13.0724 15.6429ZM12.5122 15.5309C12.3177 15.4435 12.0891 15.5302 12.0016 15.7248L12.5122 15.5309Z" fill="#36171E" stroke="#36171E" stroke-width="0.1"/>
<path d="M11.9953 14.8316C12.2086 14.8316 12.3815 14.6587 12.3815 14.4454V14.0862C12.3815 13.8729 12.2086 13.7 11.9953 13.7C11.7821 13.7 11.6092 13.8729 11.6092 14.0862V14.4454C11.6092 14.6587 11.7821 14.8316 11.9953 14.8316Z" fill="#36171E" stroke="#36171E" stroke-width="0.1"/>
<path d="M14.1516 14.8316C14.3649 14.8316 14.5377 14.6587 14.5377 14.4454V14.0862C14.5377 13.8729 14.3649 13.7 14.1516 13.7C13.9383 13.7 13.7654 13.8729 13.7654 14.0862V14.4454C13.7654 14.6587 13.9383 14.8316 14.1516 14.8316Z" fill="#36171E" stroke="#36171E" stroke-width="0.1"/>
<path d="M13.8038 21.9656C13.1945 21.9656 12.699 22.4612 12.699 23.0704C12.699 23.6796 13.1946 24.1751 13.8038 24.1751C14.4129 24.1751 14.9085 23.6796 14.9085 23.0704C14.9085 22.4612 14.4129 21.9656 13.8038 21.9656ZM13.8038 23.4028C13.6205 23.4028 13.4713 23.2536 13.4713 23.0704C13.4713 22.8871 13.6205 22.7379 13.8038 22.7379C13.987 22.7379 14.1362 22.8871 14.1362 23.0704C14.1362 23.2537 13.987 23.4028 13.8038 23.4028Z" fill="#36171E" stroke="#36171E" stroke-width="0.1"/>
<mask id="path-6-outside-1_574_222" maskUnits="userSpaceOnUse" x="6" y="7" width="25" height="21" fill="black">
<rect fill="white" x="6" y="7" width="25" height="21"/>
<path d="M28.8706 21.7953V19.6435C28.8706 18.9675 28.495 18.3597 27.8903 18.0574L26.2081 17.2163C26.0778 17.1511 25.9968 17.0201 25.9967 16.8744L25.9963 15.3566C26.6294 15.0856 27.0741 14.4566 27.0741 13.7255V11.2104C27.0741 9.6383 25.795 8.35924 24.2229 8.35924H21.3485C20.1726 8.35924 19.2159 9.31595 19.2159 10.4919C19.2159 10.9559 19.5173 11.3506 19.9345 11.4914V13.7255C19.9345 15.1001 20.8086 16.3105 22.0902 16.755V17.2903L19.8369 18.417C19.2323 18.7193 18.8566 19.3271 18.8566 20.0031V25.246H18.0085C18.062 25.1173 18.0917 24.9764 18.0917 24.8285V21.3057C18.0917 20.7048 17.6028 20.2159 17.0019 20.2159H15.936V20.1928C15.936 19.1312 15.1563 18.2486 14.1395 18.0869V17.6787C15.0587 17.2209 15.729 16.3358 15.8878 15.2847C16.3746 14.77 16.6425 14.092 16.6425 13.3663C16.6425 12.2039 16.2657 11.1328 15.5815 10.3503C14.864 9.52979 13.8454 9.07786 12.7134 9.07786C12.5623 9.07786 12.4131 9.08584 12.2661 9.10112C11.8054 8.41769 11.0292 8 10.1984 8C8.8244 8 7.70652 9.11784 7.70652 10.4919C7.70652 11.2116 8.01049 11.8833 8.54543 12.3567C8.467 12.6806 8.42509 13.0186 8.42509 13.3663C8.42509 14.2935 8.86097 15.1299 9.62181 15.6666C9.79115 16.2722 10.1337 16.8059 10.5929 17.2109V18.0779C8.98006 18.2465 7.71857 19.614 7.71857 21.2706V25.246H7.33616C7.15051 25.246 7 25.3965 7 25.5822C7 25.7678 7.15051 25.9183 7.33616 25.9183H18.8566V27.0193C18.8566 27.205 19.0071 27.3555 19.1928 27.3555C19.3784 27.3555 19.5289 27.205 19.5289 27.0193V20.0031C19.5289 19.8611 19.5562 19.7241 19.6061 19.5975L20.8462 20.631C21.1801 20.9092 21.3717 21.3181 21.3717 21.7528V27.0193C21.3717 27.205 21.5222 27.3555 21.7078 27.3555C21.8935 27.3555 22.044 27.205 22.044 27.0193V23.4264C22.044 22.8193 22.5379 22.3254 23.145 22.3254H28.1751C28.7822 22.3254 29.2761 22.8193 29.2761 23.4264V27.0193C29.2761 27.205 29.4266 27.3555 29.6122 27.3555C29.7979 27.3555 29.9484 27.205 29.9484 27.0193V23.4264C29.9484 22.6953 29.5037 22.0663 28.8706 21.7953ZM8.37888 10.4919C8.37888 9.48855 9.19511 8.67227 10.1985 8.67227C10.7049 8.67227 11.183 8.88549 11.5231 9.24607C10.2974 9.60079 9.2961 10.4888 8.78774 11.6414C8.52477 11.32 8.37888 10.9175 8.37888 10.4919ZM9.50707 14.6308C9.24029 14.2724 9.09745 13.8404 9.09745 13.3663C9.09745 11.3723 10.7196 9.75018 12.7135 9.75018C13.6622 9.75018 14.4789 10.1107 15.0754 10.7929C15.6524 11.4528 15.9702 12.3667 15.9702 13.3663C15.9702 13.523 15.9543 13.6751 15.924 13.8216V13.801C15.924 13.2542 15.5161 12.8032 14.9751 12.7518C14.1309 12.6715 12.5531 12.4223 11.4708 11.6548C11.3319 11.5564 11.1414 11.5772 11.0272 11.7033L10.4538 12.3364C9.87935 12.9708 9.54678 13.7796 9.50707 14.6308ZM10.1753 14.8027C10.1753 14.0565 10.4512 13.3409 10.9521 12.7878L11.3321 12.3683C12.5176 13.0969 14.0617 13.3403 14.9115 13.421C15.1055 13.4394 15.2517 13.6028 15.2517 13.8009V14.8034C15.2517 16.2029 14.113 17.3415 12.7135 17.3415C11.3139 17.3415 10.1753 16.2029 10.1753 14.8027ZM13.4672 17.9237V18.037C13.4672 18.6441 12.9733 19.138 12.3662 19.138C11.7591 19.138 11.2652 18.6441 11.2652 18.037V17.6672C11.7007 17.8884 12.1926 18.0139 12.7135 18.0139C12.9731 18.0139 13.2253 17.9821 13.4672 17.9237ZM17.4195 24.8285C17.4195 25.0587 17.2322 25.246 17.002 25.246H10.6049C10.3747 25.246 10.1874 25.0587 10.1874 24.8285V23.0671C10.1874 22.8815 10.0369 22.731 9.85121 22.731C9.66556 22.731 9.51505 22.8815 9.51505 23.0671V24.8285C9.51505 24.9764 9.54476 25.1173 9.59833 25.246H8.39089V21.2706C8.39089 19.9352 9.42778 18.8382 10.7387 18.7404C11.0115 19.3692 11.6382 19.8103 12.3662 19.8103C13.0924 19.8103 13.7177 19.3713 13.9916 18.745C14.7082 18.8377 15.2637 19.4514 15.2637 20.1927V20.2159H10.6049C10.004 20.2159 9.51505 20.7048 9.51505 21.3057V21.6299C9.51505 21.8155 9.66556 21.966 9.85121 21.966C10.0369 21.966 10.1874 21.8155 10.1874 21.6299V21.3057C10.1874 21.0755 10.3747 20.8882 10.6049 20.8882H15.5986C15.599 20.8882 15.5994 20.8882 15.5999 20.8882C15.6003 20.8882 15.6007 20.8882 15.6012 20.8882H17.002C17.2322 20.8882 17.4195 21.0755 17.4195 21.3057V24.8285ZM20.6068 13.7255V11.5467H20.63C21.039 11.5467 21.3717 11.8794 21.3717 12.2884V13.3663C21.3717 14.5422 22.3284 15.4989 23.5043 15.4989H23.8635C24.0492 15.4989 24.1997 15.3484 24.1997 15.1627C24.1997 14.9771 24.0492 14.8266 23.8635 14.8266H23.5043C22.6991 14.8266 22.044 14.1715 22.044 13.3663V12.2884C22.044 11.5087 21.4097 10.8743 20.63 10.8743H20.2707C20.0598 10.8743 19.8883 10.7028 19.8883 10.4919C19.8883 9.68671 20.5434 9.0316 21.3486 9.0316H24.2229C25.4243 9.0316 26.4018 10.0091 26.4018 11.2105V13.7255C26.4018 14.3326 25.9079 14.8265 25.3008 14.8265C25.1152 14.8265 24.9647 14.977 24.9647 15.1627C24.9647 15.3483 25.1152 15.4988 25.3008 15.4988C25.3086 15.4988 25.3163 15.4984 25.324 15.4983L25.3244 16.8746C25.3245 17.0406 25.3632 17.1994 25.4332 17.3416H22.7626V16.5057C22.7626 16.3523 22.6589 16.2184 22.5104 16.1802C21.3896 15.8911 20.6068 14.8817 20.6068 13.7255ZM28.1982 21.6536C28.1905 21.6535 28.1829 21.6531 28.1751 21.6531H23.145C22.7292 21.6531 22.3467 21.7972 22.044 22.0378V21.7528C22.044 21.118 21.7643 20.5208 21.2766 20.1144L20.0334 19.0783C20.0668 19.0568 20.1013 19.0364 20.1376 19.0183L22.1464 18.0139H26.2999L27.5896 18.6588C27.965 18.8465 28.1982 19.2238 28.1982 19.6435V21.6536Z"/>
</mask>
<path d="M28.8706 21.7953V19.6435C28.8706 18.9675 28.495 18.3597 27.8903 18.0574L26.2081 17.2163C26.0778 17.1511 25.9968 17.0201 25.9967 16.8744L25.9963 15.3566C26.6294 15.0856 27.0741 14.4566 27.0741 13.7255V11.2104C27.0741 9.6383 25.795 8.35924 24.2229 8.35924H21.3485C20.1726 8.35924 19.2159 9.31595 19.2159 10.4919C19.2159 10.9559 19.5173 11.3506 19.9345 11.4914V13.7255C19.9345 15.1001 20.8086 16.3105 22.0902 16.755V17.2903L19.8369 18.417C19.2323 18.7193 18.8566 19.3271 18.8566 20.0031V25.246H18.0085C18.062 25.1173 18.0917 24.9764 18.0917 24.8285V21.3057C18.0917 20.7048 17.6028 20.2159 17.0019 20.2159H15.936V20.1928C15.936 19.1312 15.1563 18.2486 14.1395 18.0869V17.6787C15.0587 17.2209 15.729 16.3358 15.8878 15.2847C16.3746 14.77 16.6425 14.092 16.6425 13.3663C16.6425 12.2039 16.2657 11.1328 15.5815 10.3503C14.864 9.52979 13.8454 9.07786 12.7134 9.07786C12.5623 9.07786 12.4131 9.08584 12.2661 9.10112C11.8054 8.41769 11.0292 8 10.1984 8C8.8244 8 7.70652 9.11784 7.70652 10.4919C7.70652 11.2116 8.01049 11.8833 8.54543 12.3567C8.467 12.6806 8.42509 13.0186 8.42509 13.3663C8.42509 14.2935 8.86097 15.1299 9.62181 15.6666C9.79115 16.2722 10.1337 16.8059 10.5929 17.2109V18.0779C8.98006 18.2465 7.71857 19.614 7.71857 21.2706V25.246H7.33616C7.15051 25.246 7 25.3965 7 25.5822C7 25.7678 7.15051 25.9183 7.33616 25.9183H18.8566V27.0193C18.8566 27.205 19.0071 27.3555 19.1928 27.3555C19.3784 27.3555 19.5289 27.205 19.5289 27.0193V20.0031C19.5289 19.8611 19.5562 19.7241 19.6061 19.5975L20.8462 20.631C21.1801 20.9092 21.3717 21.3181 21.3717 21.7528V27.0193C21.3717 27.205 21.5222 27.3555 21.7078 27.3555C21.8935 27.3555 22.044 27.205 22.044 27.0193V23.4264C22.044 22.8193 22.5379 22.3254 23.145 22.3254H28.1751C28.7822 22.3254 29.2761 22.8193 29.2761 23.4264V27.0193C29.2761 27.205 29.4266 27.3555 29.6122 27.3555C29.7979 27.3555 29.9484 27.205 29.9484 27.0193V23.4264C29.9484 22.6953 29.5037 22.0663 28.8706 21.7953ZM8.37888 10.4919C8.37888 9.48855 9.19511 8.67227 10.1985 8.67227C10.7049 8.67227 11.183 8.88549 11.5231 9.24607C10.2974 9.60079 9.2961 10.4888 8.78774 11.6414C8.52477 11.32 8.37888 10.9175 8.37888 10.4919ZM9.50707 14.6308C9.24029 14.2724 9.09745 13.8404 9.09745 13.3663C9.09745 11.3723 10.7196 9.75018 12.7135 9.75018C13.6622 9.75018 14.4789 10.1107 15.0754 10.7929C15.6524 11.4528 15.9702 12.3667 15.9702 13.3663C15.9702 13.523 15.9543 13.6751 15.924 13.8216V13.801C15.924 13.2542 15.5161 12.8032 14.9751 12.7518C14.1309 12.6715 12.5531 12.4223 11.4708 11.6548C11.3319 11.5564 11.1414 11.5772 11.0272 11.7033L10.4538 12.3364C9.87935 12.9708 9.54678 13.7796 9.50707 14.6308ZM10.1753 14.8027C10.1753 14.0565 10.4512 13.3409 10.9521 12.7878L11.3321 12.3683C12.5176 13.0969 14.0617 13.3403 14.9115 13.421C15.1055 13.4394 15.2517 13.6028 15.2517 13.8009V14.8034C15.2517 16.2029 14.113 17.3415 12.7135 17.3415C11.3139 17.3415 10.1753 16.2029 10.1753 14.8027ZM13.4672 17.9237V18.037C13.4672 18.6441 12.9733 19.138 12.3662 19.138C11.7591 19.138 11.2652 18.6441 11.2652 18.037V17.6672C11.7007 17.8884 12.1926 18.0139 12.7135 18.0139C12.9731 18.0139 13.2253 17.9821 13.4672 17.9237ZM17.4195 24.8285C17.4195 25.0587 17.2322 25.246 17.002 25.246H10.6049C10.3747 25.246 10.1874 25.0587 10.1874 24.8285V23.0671C10.1874 22.8815 10.0369 22.731 9.85121 22.731C9.66556 22.731 9.51505 22.8815 9.51505 23.0671V24.8285C9.51505 24.9764 9.54476 25.1173 9.59833 25.246H8.39089V21.2706C8.39089 19.9352 9.42778 18.8382 10.7387 18.7404C11.0115 19.3692 11.6382 19.8103 12.3662 19.8103C13.0924 19.8103 13.7177 19.3713 13.9916 18.745C14.7082 18.8377 15.2637 19.4514 15.2637 20.1927V20.2159H10.6049C10.004 20.2159 9.51505 20.7048 9.51505 21.3057V21.6299C9.51505 21.8155 9.66556 21.966 9.85121 21.966C10.0369 21.966 10.1874 21.8155 10.1874 21.6299V21.3057C10.1874 21.0755 10.3747 20.8882 10.6049 20.8882H15.5986C15.599 20.8882 15.5994 20.8882 15.5999 20.8882C15.6003 20.8882 15.6007 20.8882 15.6012 20.8882H17.002C17.2322 20.8882 17.4195 21.0755 17.4195 21.3057V24.8285ZM20.6068 13.7255V11.5467H20.63C21.039 11.5467 21.3717 11.8794 21.3717 12.2884V13.3663C21.3717 14.5422 22.3284 15.4989 23.5043 15.4989H23.8635C24.0492 15.4989 24.1997 15.3484 24.1997 15.1627C24.1997 14.9771 24.0492 14.8266 23.8635 14.8266H23.5043C22.6991 14.8266 22.044 14.1715 22.044 13.3663V12.2884C22.044 11.5087 21.4097 10.8743 20.63 10.8743H20.2707C20.0598 10.8743 19.8883 10.7028 19.8883 10.4919C19.8883 9.68671 20.5434 9.0316 21.3486 9.0316H24.2229C25.4243 9.0316 26.4018 10.0091 26.4018 11.2105V13.7255C26.4018 14.3326 25.9079 14.8265 25.3008 14.8265C25.1152 14.8265 24.9647 14.977 24.9647 15.1627C24.9647 15.3483 25.1152 15.4988 25.3008 15.4988C25.3086 15.4988 25.3163 15.4984 25.324 15.4983L25.3244 16.8746C25.3245 17.0406 25.3632 17.1994 25.4332 17.3416H22.7626V16.5057C22.7626 16.3523 22.6589 16.2184 22.5104 16.1802C21.3896 15.8911 20.6068 14.8817 20.6068 13.7255ZM28.1982 21.6536C28.1905 21.6535 28.1829 21.6531 28.1751 21.6531H23.145C22.7292 21.6531 22.3467 21.7972 22.044 22.0378V21.7528C22.044 21.118 21.7643 20.5208 21.2766 20.1144L20.0334 19.0783C20.0668 19.0568 20.1013 19.0364 20.1376 19.0183L22.1464 18.0139H26.2999L27.5896 18.6588C27.965 18.8465 28.1982 19.2238 28.1982 19.6435V21.6536Z" fill="#36171E"/>
<path d="M28.8706 21.7953V19.6435C28.8706 18.9675 28.495 18.3597 27.8903 18.0574L26.2081 17.2163C26.0778 17.1511 25.9968 17.0201 25.9967 16.8744L25.9963 15.3566C26.6294 15.0856 27.0741 14.4566 27.0741 13.7255V11.2104C27.0741 9.6383 25.795 8.35924 24.2229 8.35924H21.3485C20.1726 8.35924 19.2159 9.31595 19.2159 10.4919C19.2159 10.9559 19.5173 11.3506 19.9345 11.4914V13.7255C19.9345 15.1001 20.8086 16.3105 22.0902 16.755V17.2903L19.8369 18.417C19.2323 18.7193 18.8566 19.3271 18.8566 20.0031V25.246H18.0085C18.062 25.1173 18.0917 24.9764 18.0917 24.8285V21.3057C18.0917 20.7048 17.6028 20.2159 17.0019 20.2159H15.936V20.1928C15.936 19.1312 15.1563 18.2486 14.1395 18.0869V17.6787C15.0587 17.2209 15.729 16.3358 15.8878 15.2847C16.3746 14.77 16.6425 14.092 16.6425 13.3663C16.6425 12.2039 16.2657 11.1328 15.5815 10.3503C14.864 9.52979 13.8454 9.07786 12.7134 9.07786C12.5623 9.07786 12.4131 9.08584 12.2661 9.10112C11.8054 8.41769 11.0292 8 10.1984 8C8.8244 8 7.70652 9.11784 7.70652 10.4919C7.70652 11.2116 8.01049 11.8833 8.54543 12.3567C8.467 12.6806 8.42509 13.0186 8.42509 13.3663C8.42509 14.2935 8.86097 15.1299 9.62181 15.6666C9.79115 16.2722 10.1337 16.8059 10.5929 17.2109V18.0779C8.98006 18.2465 7.71857 19.614 7.71857 21.2706V25.246H7.33616C7.15051 25.246 7 25.3965 7 25.5822C7 25.7678 7.15051 25.9183 7.33616 25.9183H18.8566V27.0193C18.8566 27.205 19.0071 27.3555 19.1928 27.3555C19.3784 27.3555 19.5289 27.205 19.5289 27.0193V20.0031C19.5289 19.8611 19.5562 19.7241 19.6061 19.5975L20.8462 20.631C21.1801 20.9092 21.3717 21.3181 21.3717 21.7528V27.0193C21.3717 27.205 21.5222 27.3555 21.7078 27.3555C21.8935 27.3555 22.044 27.205 22.044 27.0193V23.4264C22.044 22.8193 22.5379 22.3254 23.145 22.3254H28.1751C28.7822 22.3254 29.2761 22.8193 29.2761 23.4264V27.0193C29.2761 27.205 29.4266 27.3555 29.6122 27.3555C29.7979 27.3555 29.9484 27.205 29.9484 27.0193V23.4264C29.9484 22.6953 29.5037 22.0663 28.8706 21.7953ZM8.37888 10.4919C8.37888 9.48855 9.19511 8.67227 10.1985 8.67227C10.7049 8.67227 11.183 8.88549 11.5231 9.24607C10.2974 9.60079 9.2961 10.4888 8.78774 11.6414C8.52477 11.32 8.37888 10.9175 8.37888 10.4919ZM9.50707 14.6308C9.24029 14.2724 9.09745 13.8404 9.09745 13.3663C9.09745 11.3723 10.7196 9.75018 12.7135 9.75018C13.6622 9.75018 14.4789 10.1107 15.0754 10.7929C15.6524 11.4528 15.9702 12.3667 15.9702 13.3663C15.9702 13.523 15.9543 13.6751 15.924 13.8216V13.801C15.924 13.2542 15.5161 12.8032 14.9751 12.7518C14.1309 12.6715 12.5531 12.4223 11.4708 11.6548C11.3319 11.5564 11.1414 11.5772 11.0272 11.7033L10.4538 12.3364C9.87935 12.9708 9.54678 13.7796 9.50707 14.6308ZM10.1753 14.8027C10.1753 14.0565 10.4512 13.3409 10.9521 12.7878L11.3321 12.3683C12.5176 13.0969 14.0617 13.3403 14.9115 13.421C15.1055 13.4394 15.2517 13.6028 15.2517 13.8009V14.8034C15.2517 16.2029 14.113 17.3415 12.7135 17.3415C11.3139 17.3415 10.1753 16.2029 10.1753 14.8027ZM13.4672 17.9237V18.037C13.4672 18.6441 12.9733 19.138 12.3662 19.138C11.7591 19.138 11.2652 18.6441 11.2652 18.037V17.6672C11.7007 17.8884 12.1926 18.0139 12.7135 18.0139C12.9731 18.0139 13.2253 17.9821 13.4672 17.9237ZM17.4195 24.8285C17.4195 25.0587 17.2322 25.246 17.002 25.246H10.6049C10.3747 25.246 10.1874 25.0587 10.1874 24.8285V23.0671C10.1874 22.8815 10.0369 22.731 9.85121 22.731C9.66556 22.731 9.51505 22.8815 9.51505 23.0671V24.8285C9.51505 24.9764 9.54476 25.1173 9.59833 25.246H8.39089V21.2706C8.39089 19.9352 9.42778 18.8382 10.7387 18.7404C11.0115 19.3692 11.6382 19.8103 12.3662 19.8103C13.0924 19.8103 13.7177 19.3713 13.9916 18.745C14.7082 18.8377 15.2637 19.4514 15.2637 20.1927V20.2159H10.6049C10.004 20.2159 9.51505 20.7048 9.51505 21.3057V21.6299C9.51505 21.8155 9.66556 21.966 9.85121 21.966C10.0369 21.966 10.1874 21.8155 10.1874 21.6299V21.3057C10.1874 21.0755 10.3747 20.8882 10.6049 20.8882H15.5986C15.599 20.8882 15.5994 20.8882 15.5999 20.8882C15.6003 20.8882 15.6007 20.8882 15.6012 20.8882H17.002C17.2322 20.8882 17.4195 21.0755 17.4195 21.3057V24.8285ZM20.6068 13.7255V11.5467H20.63C21.039 11.5467 21.3717 11.8794 21.3717 12.2884V13.3663C21.3717 14.5422 22.3284 15.4989 23.5043 15.4989H23.8635C24.0492 15.4989 24.1997 15.3484 24.1997 15.1627C24.1997 14.9771 24.0492 14.8266 23.8635 14.8266H23.5043C22.6991 14.8266 22.044 14.1715 22.044 13.3663V12.2884C22.044 11.5087 21.4097 10.8743 20.63 10.8743H20.2707C20.0598 10.8743 19.8883 10.7028 19.8883 10.4919C19.8883 9.68671 20.5434 9.0316 21.3486 9.0316H24.2229C25.4243 9.0316 26.4018 10.0091 26.4018 11.2105V13.7255C26.4018 14.3326 25.9079 14.8265 25.3008 14.8265C25.1152 14.8265 24.9647 14.977 24.9647 15.1627C24.9647 15.3483 25.1152 15.4988 25.3008 15.4988C25.3086 15.4988 25.3163 15.4984 25.324 15.4983L25.3244 16.8746C25.3245 17.0406 25.3632 17.1994 25.4332 17.3416H22.7626V16.5057C22.7626 16.3523 22.6589 16.2184 22.5104 16.1802C21.3896 15.8911 20.6068 14.8817 20.6068 13.7255ZM28.1982 21.6536C28.1905 21.6535 28.1829 21.6531 28.1751 21.6531H23.145C22.7292 21.6531 22.3467 21.7972 22.044 22.0378V21.7528C22.044 21.118 21.7643 20.5208 21.2766 20.1144L20.0334 19.0783C20.0668 19.0568 20.1013 19.0364 20.1376 19.0183L22.1464 18.0139H26.2999L27.5896 18.6588C27.965 18.8465 28.1982 19.2238 28.1982 19.6435V21.6536Z" stroke="#36171E" stroke-width="0.2" mask="url(#path-6-outside-1_574_222)"/>
<defs>
<linearGradient id="paint0_linear_574_222" x1="1.2" y1="10.5136" x2="35.217" y2="20.616" gradientUnits="userSpaceOnUse">
<stop stop-color="#F7C662"/>
<stop offset="0.3198" stop-color="#FFFC82"/>
<stop offset="0.6802" stop-color="#FFF68A"/>
<stop offset="1" stop-color="#E1AB18"/>
</linearGradient>
</defs>
</svg>
