<svg width="24" height="24" viewBox="0 0 24 24" fill="none" xmlns="http://www.w3.org/2000/svg">
<path d="M0 12C0 5.37188 5.37188 0 12 0C18.6281 0 24 5.37188 24 12C24 18.6281 18.6281 24 12 24C5.37188 24 0 18.6281 0 12ZM7.69219 15.2578C7.42031 14.9438 6.94688 14.9109 6.63281 15.1828C6.31875 15.4547 6.28594 15.9281 6.55781 16.2422C7.59844 17.4422 9.41719 18.75 11.9578 18.75C14.5828 18.75 16.3969 17.4422 17.4422 16.2422C17.7141 15.9281 17.6812 15.4547 17.3672 15.1828C17.0531 14.9109 16.5797 14.9438 16.3078 15.2578C15.4641 16.2281 14.0344 17.25 11.9578 17.25C9.96563 17.25 8.53125 16.2281 7.69219 15.2578ZM8.26875 8.25C7.43906 8.25 6.76875 8.92031 6.76875 9.75C6.76875 10.5797 7.43906 11.25 8.26875 11.25C9.09375 11.25 9.76875 10.5797 9.76875 9.75C9.76875 8.92031 9.09375 8.25 8.26875 8.25ZM15.7687 11.25C16.5938 11.25 17.2687 10.5797 17.2687 9.75C17.2687 8.92031 16.5938 8.25 15.7687 8.25C14.9391 8.25 14.2687 8.92031 14.2687 9.75C14.2687 10.5797 14.9391 11.25 15.7687 11.25Z" fill="url(#paint0_linear_727_135)"/>
<defs>
<linearGradient id="paint0_linear_727_135" x1="0.8" y1="7.00909" x2="23.478" y2="13.744" gradientUnits="userSpaceOnUse">
<stop stop-color="#F7C662"/>
<stop offset="0.3198" stop-color="#FFFC82"/>
<stop offset="0.6802" stop-color="#FFF68A"/>
<stop offset="1" stop-color="#E1AB18"/>
</linearGradient>
</defs>
</svg>
