<svg width="16" height="17" viewBox="0 0 16 17" fill="none" xmlns="http://www.w3.org/2000/svg">
<g clip-path="url(#clip0_574_206)">
<path d="M10.0672 1.33504C9.798 1.05958 9.47649 0.8407 9.12152 0.691262C8.76656 0.541824 8.38531 0.464844 8.00017 0.464844C7.61503 0.464844 7.23378 0.541824 6.87882 0.691262C6.52386 0.8407 6.20234 1.05958 5.93317 1.33504L5.31117 1.97304L4.42117 1.96204C4.03592 1.95748 3.65365 2.03 3.29683 2.17533C2.94002 2.32066 2.61586 2.53587 2.34343 2.8083C2.071 3.08073 1.85579 3.40489 1.71046 3.7617C1.56513 4.11852 1.49261 4.50079 1.49717 4.88604L1.50717 5.77604L0.871172 6.39804C0.595712 6.66721 0.376832 6.98872 0.227395 7.34369C0.0779572 7.69865 0.000976563 8.0799 0.000976562 8.46504C0.000976563 8.85018 0.0779572 9.23143 0.227395 9.58639C0.376832 9.94136 0.595712 10.2629 0.871172 10.532L1.50817 11.154L1.49717 12.044C1.49261 12.4293 1.56513 12.8116 1.71046 13.1684C1.85579 13.5252 2.071 13.8493 2.34343 14.1218C2.61586 14.3942 2.94002 14.6094 3.29683 14.7548C3.65365 14.9001 4.03592 14.9726 4.42117 14.968L5.31117 14.958L5.93317 15.594C6.20234 15.8695 6.52386 16.0884 6.87882 16.2378C7.23378 16.3873 7.61503 16.4642 8.00017 16.4642C8.38531 16.4642 8.76656 16.3873 9.12152 16.2378C9.47649 16.0884 9.798 15.8695 10.0672 15.594L10.6892 14.957L11.5792 14.968C11.9644 14.9726 12.3467 14.9001 12.7035 14.7548C13.0603 14.6094 13.3845 14.3942 13.6569 14.1218C13.9293 13.8493 14.1446 13.5252 14.2899 13.1684C14.4352 12.8116 14.5077 12.4293 14.5032 12.044L14.4932 11.154L15.1292 10.532C15.4046 10.2629 15.6235 9.94136 15.7729 9.58639C15.9224 9.23143 15.9994 8.85018 15.9994 8.46504C15.9994 8.0799 15.9224 7.69865 15.7729 7.34369C15.6235 6.98872 15.4046 6.66721 15.1292 6.39804L14.4922 5.77604L14.5032 4.88604C14.5077 4.50079 14.4352 4.11852 14.2899 3.7617C14.1446 3.40489 13.9293 3.08073 13.6569 2.8083C13.3845 2.53587 13.0603 2.32066 12.7035 2.17533C12.3467 2.03 11.9644 1.95748 11.5792 1.96204L10.6892 1.97204L10.0672 1.33504ZM10.3542 7.31904L7.35417 10.319C7.30773 10.3656 7.25255 10.4025 7.19181 10.4278C7.13106 10.453 7.06594 10.4659 7.00017 10.4659C6.9344 10.4659 6.86928 10.453 6.80854 10.4278C6.74779 10.4025 6.69262 10.3656 6.64617 10.319L5.14617 8.81904C5.09968 8.77255 5.06281 8.71736 5.03765 8.65662C5.01249 8.59588 4.99954 8.53078 4.99954 8.46504C4.99954 8.3993 5.01249 8.3342 5.03765 8.27346C5.06281 8.21272 5.09968 8.15753 5.14617 8.11104C5.19266 8.06455 5.24785 8.02767 5.30859 8.00252C5.36933 7.97736 5.43443 7.96441 5.50017 7.96441C5.56592 7.96441 5.63102 7.97736 5.69176 8.00252C5.75249 8.02767 5.80768 8.06455 5.85417 8.11104L7.00017 9.25804L9.64617 6.61104C9.74006 6.51715 9.8674 6.46441 10.0002 6.46441C10.1329 6.46441 10.2603 6.51715 10.3542 6.61104C10.4481 6.70493 10.5008 6.83226 10.5008 6.96504C10.5008 7.09782 10.4481 7.22515 10.3542 7.31904Z" fill="url(#paint0_linear_574_206)"/>
</g>
<defs>
<linearGradient id="paint0_linear_574_206" x1="0.534257" y1="5.13739" x2="15.6515" y2="9.62667" gradientUnits="userSpaceOnUse">
<stop stop-color="#F7C662"/>
<stop offset="0.3198" stop-color="#FFFC82"/>
<stop offset="0.6802" stop-color="#FFF68A"/>
<stop offset="1" stop-color="#E1AB18"/>
</linearGradient>
<clipPath id="clip0_574_206">
<rect width="16" height="16" fill="white" transform="translate(0 0.464844)"/>
</clipPath>
</defs>
</svg>
